<svg preserveAspectRatio="none" width="100%" height="100%" overflow="visible" style="display: block;" viewBox="0 0 14 14" fill="none" xmlns="http://www.w3.org/2000/svg">
<path id="Shape" d="M4.08333 3.5C4.08333 3.98325 3.69158 4.375 3.20833 4.375C2.72508 4.375 2.33333 3.98325 2.33333 3.5C2.33333 3.01675 2.72508 2.625 3.20833 2.625C3.69158 2.625 4.08333 3.01675 4.08333 3.5ZM4.08333 7C4.08333 7.48325 3.69158 7.875 3.20833 7.875C2.72508 7.875 2.33333 7.48325 2.33333 7C2.33333 6.51675 2.72508 6.125 3.20833 6.125C3.69158 6.125 4.08333 6.51675 4.08333 7ZM3.20833 11.375C3.69158 11.375 4.08333 10.9832 4.08333 10.5C4.08333 10.0168 3.69158 9.625 3.20833 9.625C2.72508 9.625 2.33333 10.0168 2.33333 10.5C2.33333 10.9832 2.72508 11.375 3.20833 11.375ZM5.25 3.5C5.25 3.17783 5.51117 2.91667 5.83333 2.91667H11.0833C11.4055 2.91667 11.6667 3.17783 11.6667 3.5C11.6667 3.82217 11.4055 4.08333 11.0833 4.08333H5.83333C5.51117 4.08333 5.25 3.82217 5.25 3.5ZM5.83333 6.41667C5.51117 6.41667 5.25 6.67783 5.25 7C5.25 7.32217 5.51117 7.58333 5.83333 7.58333H11.0833C11.4055 7.58333 11.6667 7.32217 11.6667 7C11.6667 6.67783 11.4055 6.41667 11.0833 6.41667H5.83333ZM5.25 10.5C5.25 10.1778 5.51117 9.91667 5.83333 9.91667H11.0833C11.4055 9.91667 11.6667 10.1778 11.6667 10.5C11.6667 10.8222 11.4055 11.0833 11.0833 11.0833H5.83333C5.51117 11.0833 5.25 10.8222 5.25 10.5ZM2.91667 0C1.30584 0 0 1.30584 0 2.91667V11.0833C0 12.6942 1.30584 14 2.91667 14H11.0833C12.6942 14 14 12.6942 14 11.0833V2.91667C14 1.30584 12.6942 0 11.0833 0H2.91667ZM1.16667 2.91667C1.16667 1.95017 1.95017 1.16667 2.91667 1.16667H11.0833C12.0498 1.16667 12.8333 1.95017 12.8333 2.91667V11.0833C12.8333 12.0498 12.0498 12.8333 11.0833 12.8333H2.91667C1.95017 12.8333 1.16667 12.0498 1.16667 11.0833V2.91667Z" fill="var(--fill-0, #3A4C5F)"/>
</svg>
